<svg id="visual" viewBox="0 0 1920 1080" width="1920" height="1080" xmlns="http://www.w3.org/2000/svg" xmlns:xlink="http://www.w3.org/1999/xlink" version="1.1">
<rect x="0" y="0" width="1920" height="1080" fill="#EEEEEE"></rect>
<path d="M0 592L45.7 598.2C91.3 604.3 182.7 616.7 274.2 625.2C365.7 633.7 457.3 638.3 548.8 623.7C640.3 609 731.7 575 823 586C914.3 597 1005.7 653 1097 655.7C1188.3 658.3 1279.7 607.7 1371.2 596.8C1462.7 586 1554.3 615 1645.8 626.3C1737.3 637.7 1828.7 631.3 1874.3 628.2L1920 625L1920 1081L1874.3 1081C1828.7 1081 1737.3 1081 1645.8 1081C1554.3 1081 1462.7 1081 1371.2 1081C1279.7 1081 1188.3 1081 1097 1081C1005.7 1081 914.3 1081 823 1081C731.7 1081 640.3 1081 548.8 1081C457.3 1081 365.7 1081 274.2 1081C182.7 1081 91.3 1081 45.7 1081L0 1081Z" fill="#69edfa"></path><path d="M0 689L45.7 697C91.3 705 182.7 721 274.2 723.5C365.7 726 457.3 715 548.8 707.8C640.3 700.7 731.7 697.3 823 698.2C914.3 699 1005.7 704 1097 716.2C1188.3 728.3 1279.7 747.7 1371.2 742.3C1462.7 737 1554.3 707 1645.8 694.2C1737.3 681.3 1828.7 685.7 1874.3 687.8L1920 690L1920 1081L1874.3 1081C1828.7 1081 1737.3 1081 1645.8 1081C1554.3 1081 1462.7 1081 1371.2 1081C1279.7 1081 1188.3 1081 1097 1081C1005.7 1081 914.3 1081 823 1081C731.7 1081 640.3 1081 548.8 1081C457.3 1081 365.7 1081 274.2 1081C182.7 1081 91.3 1081 45.7 1081L0 1081Z" fill="#0acbfb"></path><path d="M0 761L45.7 769.3C91.3 777.7 182.7 794.3 274.2 801.3C365.7 808.3 457.3 805.7 548.8 802.2C640.3 798.7 731.7 794.3 823 798.7C914.3 803 1005.7 816 1097 816.8C1188.3 817.7 1279.7 806.3 1371.2 793.2C1462.7 780 1554.3 765 1645.8 773.2C1737.3 781.3 1828.7 812.7 1874.3 828.3L1920 844L1920 1081L1874.3 1081C1828.7 1081 1737.3 1081 1645.8 1081C1554.3 1081 1462.7 1081 1371.2 1081C1279.7 1081 1188.3 1081 1097 1081C1005.7 1081 914.3 1081 823 1081C731.7 1081 640.3 1081 548.8 1081C457.3 1081 365.7 1081 274.2 1081C182.7 1081 91.3 1081 45.7 1081L0 1081Z" fill="#00a5f3"></path><path d="M0 933L45.7 916.5C91.3 900 182.7 867 274.2 851.8C365.7 836.7 457.3 839.3 548.8 850.3C640.3 861.3 731.7 880.7 823 891C914.3 901.3 1005.7 902.7 1097 899.3C1188.3 896 1279.7 888 1371.2 877.7C1462.7 867.3 1554.3 854.7 1645.8 844.8C1737.3 835 1828.7 828 1874.3 824.5L1920 821L1920 1081L1874.3 1081C1828.7 1081 1737.3 1081 1645.8 1081C1554.3 1081 1462.7 1081 1371.2 1081C1279.7 1081 1188.3 1081 1097 1081C1005.7 1081 914.3 1081 823 1081C731.7 1081 640.3 1081 548.8 1081C457.3 1081 365.7 1081 274.2 1081C182.7 1081 91.3 1081 45.7 1081L0 1081Z" fill="#007ce2"></path><path d="M0 970L45.7 963.2C91.3 956.3 182.7 942.7 274.2 937.7C365.7 932.7 457.3 936.3 548.8 940.8C640.3 945.3 731.7 950.7 823 949.5C914.3 948.3 1005.7 940.7 1097 938.5C1188.3 936.3 1279.7 939.7 1371.2 950.3C1462.7 961 1554.3 979 1645.8 978.7C1737.3 978.3 1828.7 959.7 1874.3 950.3L1920 941L1920 1081L1874.3 1081C1828.7 1081 1737.3 1081 1645.8 1081C1554.3 1081 1462.7 1081 1371.2 1081C1279.7 1081 1188.3 1081 1097 1081C1005.7 1081 914.3 1081 823 1081C731.7 1081 640.3 1081 548.8 1081C457.3 1081 365.7 1081 274.2 1081C182.7 1081 91.3 1081 45.7 1081L0 1081Z" fill="#2450c7"></path></svg>